<svg width="45" height="43" viewBox="0 0 45 43" fill="none" xmlns="http://www.w3.org/2000/svg">
<path d="M22.5 0C10.0687 0 0 9.87116 0 22.0456C0 31.7877 6.44625 40.0492 15.3844 42.962C16.5094 43.1695 16.9219 42.4871 16.9219 41.9019C16.9219 41.3785 16.9031 39.9913 16.8938 38.1535C10.635 39.4828 9.315 35.1959 9.315 35.1959C8.29125 32.6515 6.81187 31.971 6.81187 31.971C4.77375 30.6043 6.96938 30.6324 6.96938 30.6324C9.22875 30.7857 10.4156 32.9039 10.4156 32.9039C12.4219 36.2746 15.6825 35.3006 16.9688 34.7379C17.1713 33.3114 17.7506 32.3411 18.3938 31.7896C13.3969 31.2381 8.145 29.3424 8.145 20.8958C8.145 18.4897 9.01688 16.523 10.4606 14.9806C10.2075 14.4235 9.44812 12.1819 10.6575 9.14578C10.6575 9.14578 12.5419 8.555 16.845 11.406C18.645 10.9162 20.5575 10.6732 22.47 10.662C24.3825 10.6732 26.295 10.9162 28.095 11.406C32.37 8.555 34.2544 9.14578 34.2544 9.14578C35.4637 12.1819 34.7044 14.4235 34.4794 14.9806C35.9137 16.523 36.7856 18.4897 36.7856 20.8958C36.7856 29.3648 31.5263 31.2288 26.52 31.7709C27.3075 32.4327 28.0388 33.7844 28.0388 35.8503C28.0388 38.8004 28.0106 41.171 28.0106 41.887C28.0106 42.4647 28.4044 43.1545 29.5575 42.9339C38.5594 40.0399 45 31.7728 45 22.0456C45 9.87116 34.9256 0 22.5 0Z" fill="#292D46"/>
</svg>
