<svg width="46" height="46" viewBox="0 0 46 46" fill="none" xmlns="http://www.w3.org/2000/svg">
<path d="M5.15527 32.5172V44.4138C5.15527 45.214 6.12286 46 7.10869 46H38.8915C39.8773 46 40.8449 45.214 40.8449 44.4138V32.5172H5.15527ZM21.4306 40.8971C21.4306 41.2731 21.3616 41.5895 21.2243 41.8457C21.0863 42.1019 20.9023 42.3081 20.6715 42.4635C20.44 42.619 20.1743 42.7276 19.8745 42.7887C19.5747 42.8498 19.2646 42.8807 18.9473 42.8807C18.7879 42.8807 18.6016 42.864 18.389 42.8315C18.1764 42.799 17.9552 42.749 17.7275 42.68C17.4999 42.611 17.281 42.5333 17.0717 42.4469C16.8615 42.3604 16.6846 42.2629 16.5403 42.1542L17.0931 41.2762C17.1652 41.3262 17.2683 41.3793 17.4024 41.4333C17.5364 41.4872 17.6823 41.538 17.8418 41.5848C18.0004 41.6323 18.1669 41.6728 18.3406 41.7093C18.5143 41.7458 18.6769 41.7632 18.8284 41.7632C19.2107 41.7632 19.5168 41.6887 19.7444 41.5411C19.972 41.3936 20.0926 41.1414 20.1077 40.7877V34.6721H21.4306V40.8971ZM27.7254 41.4777C27.6064 41.7489 27.4383 41.9877 27.221 42.1931C27.0037 42.3985 26.7364 42.5635 26.4184 42.6864C26.1003 42.8093 25.7387 42.8704 25.3342 42.8704C25.1605 42.8704 24.9821 42.8609 24.7973 42.8434C24.6125 42.826 24.4261 42.7942 24.2389 42.7514C24.051 42.7078 23.8717 42.6483 23.702 42.5722C23.5323 42.496 23.3855 42.404 23.2626 42.2954L23.4902 41.3627C23.591 41.4206 23.7194 41.4769 23.8749 41.5308C24.0303 41.5848 24.1906 41.6355 24.3571 41.6823C24.5229 41.7299 24.6894 41.7672 24.856 41.7965C25.0217 41.8251 25.1772 41.8401 25.3223 41.8401C25.7633 41.8401 26.1011 41.737 26.3359 41.5308C26.5707 41.3246 26.688 41.0193 26.688 40.6148C26.688 40.3689 26.6048 40.1596 26.439 39.9859C26.2724 39.8122 26.0647 39.6551 25.8156 39.514C25.5666 39.3728 25.2969 39.2324 25.0074 39.0912C24.718 38.9501 24.4467 38.7835 24.1945 38.5924C23.9415 38.4012 23.7313 38.1752 23.5656 37.9151C23.399 37.6549 23.3166 37.3298 23.3166 36.9396C23.3166 36.5858 23.3816 36.271 23.5117 35.9966C23.6417 35.7221 23.817 35.4882 24.0375 35.297C24.258 35.1059 24.5149 34.9592 24.8076 34.8577C25.1002 34.7561 25.4096 34.7062 25.7347 34.7062C26.067 34.7062 26.4033 34.7371 26.7428 34.7982C27.0822 34.8592 27.3566 34.9592 27.5668 35.0964C27.5232 35.19 27.4724 35.2931 27.4153 35.4057C27.3574 35.5183 27.3027 35.6222 27.2527 35.7198C27.202 35.8173 27.1583 35.899 27.1227 35.964C27.0862 36.0291 27.0648 36.0656 27.0576 36.0727C27.014 36.0513 26.9656 36.0227 26.9109 35.9862C26.8562 35.9498 26.7784 35.9141 26.6777 35.8776C26.5762 35.8411 26.4422 35.8165 26.2764 35.8015C26.1099 35.7864 25.8965 35.7903 25.6364 35.8126C25.4912 35.8276 25.3548 35.8681 25.224 35.9371C25.0931 36.0061 24.9773 36.0901 24.8766 36.1917C24.7751 36.2932 24.695 36.4066 24.6379 36.5335C24.58 36.6596 24.5514 36.7817 24.5514 36.8967C24.5514 37.1854 24.6339 37.4186 24.8004 37.5962C24.9662 37.7739 25.1724 37.9286 25.4183 38.0626C25.6641 38.1966 25.9306 38.3267 26.2209 38.4528C26.5096 38.5789 26.7792 38.7336 27.0291 38.9136C27.2789 39.0936 27.4859 39.3205 27.6524 39.5909C27.8182 39.8621 27.9015 40.2103 27.9015 40.637C27.9047 40.9265 27.8444 41.2065 27.7254 41.4777Z" fill="black"/>
<path d="M40.8449 30.931V11.086C40.8449 10.4785 40.772 10.0288 40.4087 9.66476L31.1794 0.436207C30.9026 0.159414 30.5187 0 30.1261 0H7.10869C6.16807 0 5.15527 0.726483 5.15527 2.32062V30.931H40.8449ZM23.3967 25.3793C23.3967 25.8171 23.0421 26.1724 22.6035 26.1724C22.165 26.1724 21.8104 25.8171 21.8104 25.3793V23C21.8104 22.5622 22.165 22.2069 22.6035 22.2069C23.0421 22.2069 23.3967 22.5622 23.3967 23V25.3793ZM29.7415 2.68941C29.7415 2.32617 30.1801 2.14455 30.437 2.40152L38.4434 10.4079C38.7004 10.6649 38.5188 11.1034 38.1555 11.1034H29.7415V2.68941ZM28.9484 18.2414V15.069C28.9484 14.632 28.5931 14.2759 28.1553 14.2759C27.7167 14.2759 27.3622 13.9206 27.3622 13.4828C27.3622 13.045 27.7167 12.6897 28.1553 12.6897C29.4671 12.6897 30.5346 13.7572 30.5346 15.069V18.2414C30.5346 19.1162 31.246 19.8276 32.1208 19.8276C32.5594 19.8276 32.9139 20.1829 32.9139 20.6207C32.9139 21.0585 32.5594 21.4138 32.1208 21.4138C31.246 21.4138 30.5346 22.1252 30.5346 23V26.1724C30.5346 27.4842 29.4671 28.5517 28.1553 28.5517C27.7167 28.5517 27.3622 28.1964 27.3622 27.7586C27.3622 27.3208 27.7167 26.9655 28.1553 26.9655C28.5931 26.9655 28.9484 26.6094 28.9484 26.1724V23C28.9484 22.0483 29.3782 21.2028 30.0444 20.6207C29.3782 20.0386 28.9484 19.1931 28.9484 18.2414ZM22.6035 16.6552C23.2602 16.6552 23.7932 17.1881 23.7932 17.8448C23.7932 18.5015 23.2602 19.0345 22.6035 19.0345C21.9469 19.0345 21.4139 18.5015 21.4139 17.8448C21.4139 17.1881 21.9469 16.6552 22.6035 16.6552ZM13.0863 19.8276C13.9611 19.8276 14.6725 19.1162 14.6725 18.2414V15.069C14.6725 13.7572 15.74 12.6897 17.0518 12.6897C17.4904 12.6897 17.8449 13.045 17.8449 13.4828C17.8449 13.9206 17.4904 14.2759 17.0518 14.2759C16.614 14.2759 16.2587 14.632 16.2587 15.069V18.2414C16.2587 19.1931 15.8289 20.0386 15.1627 20.6207C15.8289 21.2028 16.2587 22.0483 16.2587 23V26.1724C16.2587 26.6094 16.614 26.9655 17.0518 26.9655C17.4904 26.9655 17.8449 27.3208 17.8449 27.7586C17.8449 28.1964 17.4904 28.5517 17.0518 28.5517C15.74 28.5517 14.6725 27.4842 14.6725 26.1724V23C14.6725 22.1252 13.9611 21.4138 13.0863 21.4138C12.6477 21.4138 12.2932 21.0585 12.2932 20.6207C12.2932 20.1829 12.6477 19.8276 13.0863 19.8276Z" fill="black"/>
</svg>
