<svg width="46" height="46" viewBox="0 0 46 46" fill="none" xmlns="http://www.w3.org/2000/svg">
<path d="M22.7721 8.52323C20.6466 10.0181 18.2376 11.7126 16.9469 14.5159C14.705 19.4063 21.5345 24.7411 21.8263 24.9658C21.8942 25.0182 21.9754 25.0441 22.0563 25.0441C22.1423 25.0441 22.2284 25.0147 22.2984 24.9562C22.434 24.8428 22.4725 24.6502 22.391 24.4933C22.3663 24.4457 19.9149 19.684 20.006 16.2678C20.0382 15.0781 21.7033 13.7285 23.4661 12.2994C25.0806 10.9906 26.9106 9.50717 27.9814 7.77185C30.3321 3.95205 27.7195 0.196049 27.6928 0.158646C27.589 0.0129548 27.3975 -0.0399828 27.2337 0.031958C27.07 0.10405 26.9794 0.281111 27.0168 0.455911C27.0221 0.480645 27.5302 2.96449 26.1164 5.52344C25.5338 6.58083 24.2541 7.48107 22.7721 8.52323Z" fill="black"/>
<path d="M31.7272 10.2077C31.8771 10.0947 31.9211 9.88872 31.8303 9.72433C31.7395 9.55994 31.5418 9.48739 31.3662 9.55405C31.0052 9.6913 22.5242 12.9603 22.5242 16.9104C22.5242 19.6331 23.6873 21.0717 24.5366 22.1221C24.8697 22.534 25.1573 22.8898 25.252 23.1935C25.5188 24.0689 24.8868 25.651 24.621 26.1867C24.5444 26.3408 24.5819 26.5274 24.7123 26.6399C24.7827 26.7007 24.8706 26.7314 24.9587 26.7314C25.0336 26.7314 25.1089 26.7091 25.1739 26.6639C25.3198 26.5624 28.7378 24.1458 28.1247 21.2342C27.8963 20.1277 27.3525 19.319 26.8726 18.6055C26.1292 17.5001 25.5923 16.7015 26.4069 15.2267C27.3615 13.5067 31.6836 10.2404 31.7272 10.2077Z" fill="black"/>
<path d="M9.65079 26.7944C9.5054 27.2295 9.57403 27.6616 9.84912 28.0436C10.7685 29.3199 14.025 30.0228 19.0192 30.0228C19.0195 30.0228 19.0197 30.0228 19.0198 30.0228C19.6966 30.0228 20.411 30.0096 21.1428 29.9833C29.1276 29.6974 32.0892 27.2099 32.2114 27.1042C32.3445 26.9889 32.3801 26.797 32.2973 26.6416C32.2145 26.4864 32.036 26.4084 31.8654 26.4553C29.0534 27.2232 23.8022 27.4957 20.1599 27.4957C16.0843 27.4957 14.0087 27.2022 13.5006 26.9855C13.7614 26.6274 15.3696 25.9881 17.3623 25.5961C17.5528 25.5587 17.6837 25.3829 17.6649 25.1897C17.646 24.9965 17.4837 24.8491 17.2896 24.8491C16.1214 24.8493 10.2631 24.9431 9.65079 26.7944Z" fill="black"/>
<path d="M36.3697 24.2325C34.7228 24.2325 33.161 25.0578 33.0953 25.093C32.943 25.1746 32.8657 25.3492 32.9075 25.5169C32.9494 25.6845 33.1001 25.8023 33.273 25.8024C33.3079 25.8026 36.786 25.8309 37.101 27.8181C37.3801 29.5325 33.8102 32.3103 32.411 33.236C32.2599 33.336 32.2012 33.5293 32.2714 33.6963C32.3309 33.8385 32.4695 33.9275 32.6189 33.9275C32.6449 33.9275 32.6713 33.9248 32.6976 33.9191C33.0297 33.8482 40.8199 32.1315 39.9963 27.5957C39.4938 24.8159 37.7467 24.2325 36.3697 24.2325Z" fill="black"/>
<path d="M31.0272 32.681C31.0543 32.5356 30.9938 32.3878 30.8729 32.303L29.005 30.9947C28.9139 30.9309 28.7988 30.9108 28.6919 30.9392C28.6724 30.9443 26.719 31.4577 23.883 31.7726C22.7575 31.8988 21.4968 31.9655 20.237 31.9655C17.4017 31.9655 15.5478 31.6323 15.2779 31.388C15.2421 31.3194 15.2534 31.2882 15.2598 31.2708C15.3088 31.1343 15.5717 30.9722 15.7412 30.9081C15.9284 30.8389 16.0293 30.6356 15.971 30.4446C15.913 30.2537 15.7162 30.1412 15.5219 30.1879C13.6481 30.6401 12.7319 31.2725 12.7986 32.0673C12.917 33.4764 16.1811 34.1997 18.9407 34.3911C19.3375 34.4183 19.7667 34.4321 20.216 34.4321C20.2163 34.4321 20.2164 34.4321 20.2168 34.4321C24.8054 34.4321 30.688 32.9924 30.7468 32.9778C30.8904 32.9423 30.9999 32.8264 31.0272 32.681Z" fill="black"/>
<path d="M16.9446 35.7057C17.086 35.6135 17.1488 35.4387 17.0986 35.2777C17.0485 35.1166 16.8978 35.0109 16.7286 35.013C16.4775 35.0196 14.2714 35.1191 14.117 36.5237C14.0703 36.9435 14.1905 37.3268 14.4744 37.6633C15.2666 38.602 17.4046 39.1599 21.0097 39.3691C21.4363 39.3946 21.8694 39.4074 22.2976 39.4074C26.881 39.4074 29.9678 37.9723 30.0971 37.9113C30.2224 37.852 30.305 37.7289 30.3124 37.5905C30.3198 37.4522 30.2507 37.3208 30.1325 37.2486L27.7719 35.8075C27.69 35.7576 27.5919 35.741 27.4984 35.7601C27.4835 35.7633 25.9847 36.0741 23.7227 36.3814C23.2947 36.4394 22.7586 36.469 22.1297 36.469C19.8702 36.469 17.3569 36.0998 16.8749 35.8582C16.8679 35.8128 16.8768 35.7555 16.9446 35.7057Z" fill="black"/>
<path d="M20.1616 43.7403C30.6602 43.7314 36.2949 41.8644 37.3804 40.6895C37.7647 40.2737 37.8061 39.8802 37.7734 39.6232C37.6927 38.9907 37.1167 38.6035 37.0513 38.5614C36.8937 38.4601 36.6822 38.4866 36.5593 38.6284C36.4367 38.7703 36.4338 38.9774 36.5569 39.119C36.6231 39.2042 36.6614 39.3467 36.4678 39.5405C36.0339 39.9458 31.6571 41.176 24.3698 41.5455C23.3715 41.5976 22.3245 41.6238 21.2579 41.624C14.7332 41.624 9.95812 40.7304 9.33132 40.2094C9.57308 39.8624 11.262 39.3077 13.0582 38.9941C13.2606 38.9588 13.3974 38.768 13.366 38.565C13.3347 38.362 13.1475 38.2222 12.943 38.2489C12.8923 38.2557 12.7205 38.2663 12.5213 38.2783C9.55755 38.4593 6.13259 38.8628 5.95387 40.3897C5.89958 40.8551 6.03788 41.2774 6.36501 41.6451C7.1654 42.5444 9.46615 43.7401 20.1612 43.7401C20.1615 43.7403 20.1615 43.7403 20.1616 43.7403Z" fill="black"/>
<path d="M39.4425 41.0206C39.2941 40.9519 39.1189 40.9866 39.008 41.1061C38.9925 41.1227 37.4142 42.7732 32.6683 43.7424C30.8514 44.1065 27.4409 44.2911 22.5316 44.2911C17.6131 44.2911 12.933 44.0976 12.8863 44.0956C12.6908 44.0861 12.5236 44.2282 12.497 44.4206C12.4703 44.6131 12.5943 44.7942 12.7831 44.8391C12.8318 44.8508 17.7366 45.9999 24.443 45.9999C27.6595 45.9999 30.7894 45.7385 33.7461 45.223C39.259 44.2565 39.6449 41.5229 39.6586 41.4071C39.6778 41.2451 39.5906 41.0892 39.4425 41.0206Z" fill="black"/>
</svg>
