<svg width="79" height="79" viewBox="0 0 79 79" fill="none" xmlns="http://www.w3.org/2000/svg">
<g clip-path="url(#clip0)">
<path d="M73.3025 0H5.69753C2.55072 0 0 2.55072 0 5.69753V73.3025C0 76.4493 2.55072 79 5.69753 79H73.3025C76.4493 79 79 76.4493 79 73.3025V5.69753C79 2.55072 76.4493 0 73.3025 0V0ZM28.0218 59.7129H18.4017V30.7708H28.0218V59.7129ZM23.212 26.8187H23.1494C19.9212 26.8187 17.8333 24.5965 17.8333 21.8191C17.8333 18.9791 19.9851 16.8184 23.2759 16.8184C26.5668 16.8184 28.5919 18.9791 28.6546 21.8191C28.6546 24.5965 26.5668 26.8187 23.212 26.8187ZM62.7096 59.7129H53.0908V44.2296C53.0908 40.3384 51.6979 37.6846 48.2172 37.6846C45.5598 37.6846 43.977 39.4747 43.2815 41.2027C43.0271 41.8211 42.965 42.6854 42.965 43.5503V59.7129H33.3456C33.3456 59.7129 33.4716 33.486 33.3456 30.7708H42.965V34.8687C44.2434 32.8966 46.5308 30.0915 51.6346 30.0915C57.9638 30.0915 62.7096 34.228 62.7096 43.1175V59.7129Z" fill="black"/>
</g>
<defs>
<clipPath id="clip0">
<rect width="79" height="79" rx="39.5" fill="white"/>
</clipPath>
</defs>
</svg>
