<svg width="46" height="46" viewBox="0 0 46 46" fill="none" xmlns="http://www.w3.org/2000/svg">
<path d="M10.4219 26.5938C10.4219 23.869 12.6385 21.6523 15.3633 21.6523H30.6367C31.8752 21.6523 32.8828 20.6448 32.8828 19.4062V6.73828C32.8828 3.02275 29.8601 0 26.1445 0H19.8555C16.1399 0 13.1172 3.02275 13.1172 6.73828V10.4219H23C23.7444 10.4219 24.3477 11.0252 24.3477 11.7695C24.3477 12.5139 23.7444 13.1172 23 13.1172H6.73828C3.02275 13.1172 0 16.1399 0 19.8555V26.1445C0 29.8601 3.02275 32.8828 6.73828 32.8828H10.4219V26.5938ZM19.8555 6.82812C19.1111 6.82812 18.5078 6.22484 18.5078 5.48047C18.5078 4.7361 19.1111 4.13281 19.8555 4.13281C20.5998 4.13281 21.2031 4.7361 21.2031 5.48047C21.2031 6.22484 20.5998 6.82812 19.8555 6.82812Z" fill="black"/>
<path d="M39.2617 13.1172H35.5781V19.4062C35.5781 22.131 33.3615 24.3477 30.6367 24.3477H15.3633C14.1248 24.3477 13.1172 25.3552 13.1172 26.5938V39.2617C13.1172 42.9772 16.1399 46 19.8555 46H26.1445C29.8601 46 32.8828 42.9772 32.8828 39.2617V35.5781H23C22.2556 35.5781 21.6523 34.9748 21.6523 34.2305C21.6523 33.4861 22.2556 32.8828 23 32.8828H39.2617C42.9772 32.8828 46 29.8601 46 26.1445V19.8555C46 16.1399 42.9772 13.1172 39.2617 13.1172ZM26.1445 39.1719C26.8889 39.1719 27.4922 39.7752 27.4922 40.5195C27.4922 41.2639 26.8889 41.8672 26.1445 41.8672C25.4002 41.8672 24.7969 41.2639 24.7969 40.5195C24.7969 39.7752 25.4002 39.1719 26.1445 39.1719Z" fill="black"/>
</svg>
