<svg width="46" height="46" viewBox="0 0 46 46" fill="none" xmlns="http://www.w3.org/2000/svg">
<g clip-path="url(#clip0)">
<path d="M23.9746 18.957C21.7453 18.957 19.9316 20.7707 19.9316 23C19.9316 25.2293 21.7453 27.043 23.9746 27.043C26.2039 27.043 28.0176 25.2293 28.0176 23C28.0176 20.7707 26.2039 18.957 23.9746 18.957ZM23.9746 24.3477C23.2315 24.3477 22.627 23.7431 22.627 23C22.627 22.2569 23.2315 21.6523 23.9746 21.6523C24.7177 21.6523 25.3223 22.2569 25.3223 23C25.3223 23.7431 24.7177 24.3477 23.9746 24.3477Z" fill="black"/>
<path d="M41.0785 24.8157C40.5812 24.2113 40.0367 23.6049 39.4511 23C40.0367 22.3951 40.5812 21.7887 41.0785 21.1843C44.2246 17.3603 45.1965 13.937 43.8155 11.5449C42.4345 9.15283 38.9836 8.28296 34.0991 9.09551C33.3334 9.22282 32.5427 9.38966 31.733 9.59208C31.4677 8.64791 31.1731 7.7554 30.8512 6.92345C31.5971 6.18961 32.0607 5.16961 32.0607 4.04297C32.0607 1.81368 30.2471 0 28.0178 0C27.3092 0 26.6429 0.18382 26.0631 0.505461C25.3883 0.169984 24.6891 0 23.9747 0C21.2134 0 18.7345 2.57025 16.9944 7.23727C16.7164 7.98289 16.4608 8.77109 16.2277 9.59477C15.4141 9.3911 14.6197 9.22345 13.8505 9.09551C8.96577 8.28305 5.51505 9.15292 4.13406 11.5449C2.75298 13.937 3.725 17.3603 6.87106 21.1843C7.36862 21.7892 7.91361 22.3959 8.49966 23.0013C7.83922 23.6823 7.23484 24.3631 6.69155 25.0383C5.68306 24.7593 4.56801 24.8678 3.59248 25.431C1.66183 26.5457 0.997975 29.0231 2.11267 30.9538C2.46683 31.5672 2.95953 32.0509 3.52762 32.3921C3.57424 33.1448 3.77666 33.8359 4.13415 34.4551C5.87362 37.468 10.4103 37.4768 13.8506 36.9045C14.6198 36.7766 15.4142 36.6088 16.2277 36.4052C16.461 37.2288 16.7165 38.0171 16.9945 38.7627C18.7345 43.4298 21.2134 46 23.9747 46C26.736 46 29.2149 43.4298 30.955 38.7627C31.2332 38.0167 31.4889 37.2279 31.7223 36.4036C32.6384 36.6339 33.5264 36.8159 34.3795 36.9484C34.3824 36.9594 34.3845 36.9704 34.3875 36.9813C34.667 38.0244 35.336 38.8962 36.2713 39.4363C38.2044 40.5522 40.681 39.8844 41.794 37.9564C42.1421 37.3536 42.3243 36.6867 42.3358 36.0095C42.9627 35.5931 43.4587 35.0731 43.8155 34.4551C45.1966 32.063 44.2246 28.6397 41.0785 24.8157ZM6.46811 12.8926C7.22433 11.5828 9.81874 11.1572 13.4081 11.7543C14.1125 11.8715 14.841 12.0253 15.5882 12.2124C15.228 13.9394 14.9566 15.781 14.7806 17.6967C13.2125 18.8077 11.7557 19.9645 10.4452 21.1374C9.90733 20.5817 9.4078 20.0255 8.95238 19.4719C6.64061 16.662 5.71199 14.2024 6.46811 12.8926ZM14.5686 24.7984C13.8064 24.2069 13.0815 23.6066 12.3989 23.0015C13.0812 22.3973 13.8057 21.7967 14.5685 21.2046C14.532 22.4184 14.532 23.5841 14.5686 24.7984ZM4.44663 29.6061C4.07512 28.9626 4.29641 28.1367 4.93996 27.7651C5.58387 27.3934 6.40953 27.6153 6.78086 28.2585C7.15326 28.9035 6.93269 29.727 6.28762 30.0994C5.64407 30.471 4.81822 30.2497 4.44663 29.6061ZM13.4081 34.2457C9.81883 34.8428 7.22433 34.4173 6.46811 33.1074C6.43047 33.0422 6.39857 32.9737 6.36928 32.9036C6.8035 32.8214 7.23142 32.6667 7.63527 32.4336C8.57055 31.8936 9.23943 31.0218 9.51903 29.9787C9.79853 28.9355 9.65505 27.846 9.11509 26.9108C9.04995 26.798 8.97969 26.6898 8.90557 26.5857C9.37051 26.0161 9.88388 25.4414 10.4421 24.8655C11.7539 26.0406 13.2107 27.1963 14.781 28.3071C14.957 30.2216 15.2282 32.0617 15.5882 33.7877C14.841 33.9747 14.1126 34.1285 13.4081 34.2457ZM30.2411 15.757C29.2321 15.1329 28.2195 14.546 27.1203 13.9549C28.0185 13.5886 28.9055 13.2594 29.7753 12.9697C29.9554 13.8655 30.1114 14.7966 30.2411 15.757ZM28.0177 2.69531C28.7608 2.69531 29.3653 3.29987 29.3653 4.04297C29.3653 4.78607 28.7608 5.39062 28.0177 5.39062C27.2746 5.39062 26.67 4.78607 26.67 4.04297C26.67 3.29987 27.2746 2.69531 28.0177 2.69531ZM19.5198 8.17893C20.8001 4.74528 22.4654 2.69531 23.9747 2.69531C24.0501 2.69531 24.1256 2.70196 24.201 2.71166C24.055 3.1289 23.9747 3.57659 23.9747 4.04297C23.9747 6.41116 26.0169 8.29438 28.4037 8.06707C28.6732 8.77827 28.9215 9.53808 29.1471 10.3404C27.4666 10.8902 25.7296 11.5766 23.9747 12.3848C22.2245 11.5787 20.4919 10.8938 18.8156 10.3448C19.0302 9.58705 19.2648 8.86282 19.5198 8.17893ZM18.1816 12.9721C19.049 13.2613 19.9334 13.5897 20.8291 13.9548C19.76 14.5299 18.7367 15.1205 17.7121 15.7547C17.8428 14.7976 17.9996 13.868 18.1816 12.9721ZM17.7121 30.2454C18.7473 30.8855 19.7687 31.4752 20.8293 32.045C19.9336 32.4103 19.0491 32.7387 18.1816 33.0278C17.9996 32.132 17.8428 31.2025 17.7121 30.2454ZM28.4296 37.8211C27.1493 41.2547 25.484 43.3047 23.9747 43.3047C22.4654 43.3047 20.8001 41.2547 19.5198 37.8211C19.2648 37.1371 19.0302 36.413 18.8156 35.6552C20.4931 35.1058 22.2267 34.4204 23.9781 33.6136C25.7276 34.4177 27.4612 35.102 29.1351 35.6511C28.9202 36.4103 28.6851 37.1359 28.4296 37.8211ZM29.7683 33.0257C28.9025 32.7365 28.0187 32.4089 27.1228 32.0438C28.193 31.4681 29.2028 30.8851 30.2373 30.2454C30.1067 31.2017 29.95 32.1305 29.7683 33.0257ZM30.5848 26.8158C28.5196 28.2033 26.2773 29.5038 23.9764 30.6313C21.7654 29.5494 19.5221 28.2653 17.3648 26.8158C17.1952 24.3166 17.1923 21.7266 17.3647 19.186C19.5213 17.7352 21.7666 16.4499 23.9748 15.3679C26.2001 16.4582 28.4494 17.7494 30.5851 19.1843C30.7558 21.7115 30.7559 24.2951 30.5848 26.8158ZM34.5413 11.7543C38.1307 11.1572 40.725 11.5827 41.4813 12.8926C42.2375 14.2024 41.3088 16.662 38.9971 19.4719C38.5425 20.0245 38.044 20.5796 37.5071 21.1342C36.1954 19.9593 34.7388 18.8037 33.1686 17.693C32.993 15.7759 32.7231 13.9336 32.3669 12.2108C33.1122 12.0245 33.8387 11.8711 34.5413 11.7543ZM33.3811 21.2018C34.1438 21.7938 34.8692 22.3945 35.5523 23C34.8692 23.6055 34.1438 24.2063 33.3809 24.7984C33.4165 23.6147 33.4184 22.4378 33.3811 21.2018ZM39.4598 36.6087C39.0882 37.2523 38.2624 37.4736 37.6189 37.1021C36.9754 36.7305 36.7541 35.9046 37.1256 35.2611C37.4971 34.6176 38.3228 34.3962 38.9665 34.7677C39.6116 35.1401 39.8323 35.9636 39.4598 36.6087ZM41.3553 33.2935C41.0629 32.955 40.713 32.6639 40.3141 32.4336C38.2688 31.2528 35.6164 32.0697 34.6141 34.2574C33.8899 34.1397 33.1373 33.9829 32.3613 33.788C32.7213 32.0619 32.9925 30.2215 33.1685 28.307C34.7387 27.1963 36.1954 26.0406 37.5071 24.8657C38.0439 25.4203 38.5425 25.9754 38.9971 26.528C40.3791 28.208 42.6636 31.5738 41.3553 33.2935Z" fill="black"/>
</g>
<defs>
<clipPath id="clip0">
<rect width="46" height="46" fill="white"/>
</clipPath>
</defs>
</svg>
