<svg width="46" height="46" viewBox="0 0 46 46" fill="none" xmlns="http://www.w3.org/2000/svg">
<g clip-path="url(#clip0)">
<path d="M23.1691 33.5826C21.4815 33.5826 20.5075 35.239 20.5075 37.2838C20.4908 39.3616 21.4974 40.9529 23.1534 40.9529C24.8252 40.9529 25.7994 39.378 25.7994 37.2358C25.7993 35.239 24.8577 33.5826 23.1691 33.5826Z" fill="black"/>
<path d="M39.6772 11.0233C39.6745 10.8123 39.6076 10.6039 39.4627 10.4393L30.5932 0.308503C30.5915 0.305664 30.588 0.304745 30.5862 0.302156C30.5333 0.243111 30.4726 0.194422 30.4074 0.151496C30.388 0.138969 30.3677 0.127694 30.3474 0.116253C30.2911 0.0856861 30.232 0.0602976 30.1695 0.0417574C30.1537 0.0369135 30.1378 0.0300653 30.1211 0.0257225C30.0542 0.00952068 29.9846 0 29.915 0H8.11739C7.1229 0 6.31348 0.809508 6.31348 1.804V44.1961C6.31348 45.191 7.1229 46.0001 8.11739 46.0001H37.882C38.8765 46.0001 39.6861 45.191 39.6861 44.1961V11.1243C39.686 11.0904 39.6807 11.0572 39.6772 11.0233ZM12.3083 42.9008C11.0578 42.9008 9.82444 42.5757 9.20785 42.2344L9.71077 40.1895C10.3758 40.5305 11.3991 40.8714 12.4536 40.8714C13.5905 40.8714 14.1907 40.4001 14.1907 39.6858C14.1907 39.0036 13.672 38.6147 12.357 38.1444C10.5392 37.5111 9.35366 36.5038 9.35366 34.9134C9.35366 33.0465 10.9127 31.6178 13.4935 31.6178C14.7275 31.6178 15.6366 31.8777 16.2855 32.1701L15.7332 34.1665C15.2952 33.9559 14.516 33.6481 13.4449 33.6481C12.3729 33.6481 11.8543 34.1343 11.8543 34.7029C11.8543 35.4009 12.4707 35.7092 13.8828 36.2448C15.8143 36.9591 16.7243 37.9659 16.7243 39.5082C16.7238 41.3417 15.311 42.9008 12.3083 42.9008ZM27.7464 44.6206C26.1883 44.1661 24.8899 43.6957 23.4287 43.0782C23.1855 42.9814 22.9257 42.9325 22.6658 42.9166C20.1986 42.7549 17.8938 40.936 17.8938 37.3643C17.8938 34.0855 19.9714 31.6178 23.2339 31.6178C26.5784 31.6178 28.4123 34.1502 28.4123 37.1371C28.4123 39.621 27.2601 41.3742 25.8147 42.023V42.0886C26.6594 42.3326 27.6011 42.5273 28.4608 42.7048L27.7464 44.6206ZM36.8709 42.7382H30.0366V31.7971H32.5205V40.66H36.8709V42.7382ZM8.11739 30.6292V1.804H29.013V11.0336C29.013 11.5315 29.4165 11.9356 29.915 11.9356H37.882L37.883 30.6292H8.11739Z" fill="black"/>
<path d="M27.9032 14.2953C27.9428 14.1861 27.971 14.0742 27.971 13.956C27.971 12.504 24.8335 11.7207 21.8807 11.7207C18.9309 11.7207 15.7943 12.504 15.7943 13.956C15.7943 14.0742 15.8218 14.1866 15.8619 14.2962L15.8462 14.3242C15.7113 14.5691 15.6445 14.8161 15.6445 15.0592V16.8559C15.6445 17.1325 15.7316 17.398 15.8859 17.6491L15.8657 17.6834C15.7185 17.9386 15.6446 18.1971 15.6446 18.4524V20.2486C15.6446 20.5166 15.7267 20.7736 15.8727 21.0176L15.8657 21.0288C15.7185 21.2836 15.6446 21.5426 15.6446 21.7973V23.5937C15.6446 25.1907 18.384 26.441 21.8808 26.441C25.3814 26.441 28.1208 25.1907 28.1208 23.5937V21.7973C28.1208 21.5421 28.0468 21.2827 27.8979 21.0283L27.8918 21.0185C28.0366 20.774 28.1208 20.5171 28.1208 20.2486V18.4524C28.1208 18.1968 28.0468 17.9374 27.8979 17.6826L27.8786 17.6495C28.0328 17.398 28.1208 17.1329 28.1208 16.8554V15.0588C28.1208 14.8157 28.053 14.568 27.9191 14.323L27.9032 14.2953ZM27.4523 23.5937C27.4523 24.6252 25.1656 25.7728 21.8808 25.7728C18.5991 25.7728 16.3121 24.6252 16.3121 23.5937V21.9041C17.3362 22.8421 19.4432 23.4404 21.8808 23.4404C24.3218 23.4404 26.4287 22.8417 27.4523 21.9032V23.5937ZM27.4523 20.2486C27.4523 21.2791 25.1656 22.4277 21.8808 22.4277C18.5991 22.4277 16.3121 21.2791 16.3121 20.2486V18.5587C17.3362 19.4963 19.4432 20.0952 21.8808 20.0952C24.3218 20.0952 26.4287 19.4963 27.4523 18.5578V20.2486ZM27.4523 16.8554C27.4523 17.8859 25.1656 19.0345 21.8808 19.0345C18.5991 19.0345 16.3121 17.8863 16.3121 16.8554V15.3604C17.3129 16.2086 19.6336 16.6484 21.8808 16.6484C24.131 16.6484 26.4507 16.2086 27.4523 15.3604V16.8554Z" fill="black"/>
</g>
<defs>
<clipPath id="clip0">
<rect width="46" height="46" fill="white"/>
</clipPath>
</defs>
</svg>
